<?xml version="1.0" encoding="UTF-8" standalone="no"?>
<!-- Created with Inkscape (http://www.inkscape.org/) -->

<svg
   viewBox="0 0 879.99999 880"
   version="1.1"
   id="svg62"
   sodipodi:docname="ARRL_colorado.svg"
   inkscape:version="1.2.1 (9c6d41e, 2022-07-14)"
   width="880"
   height="880"
   xmlns:inkscape="http://www.inkscape.org/namespaces/inkscape"
   xmlns:sodipodi="http://sodipodi.sourceforge.net/DTD/sodipodi-0.dtd"
   xmlns="http://www.w3.org/2000/svg"
   xmlns:svg="http://www.w3.org/2000/svg">
  <defs
     id="defs66" />
  <sodipodi:namedview
     id="namedview64"
     pagecolor="#ffffff"
     bordercolor="#000000"
     borderopacity="0.25"
     inkscape:showpageshadow="2"
     inkscape:pageopacity="0.0"
     inkscape:pagecheckerboard="0"
     inkscape:deskcolor="#d1d1d1"
     showgrid="false"
     inkscape:zoom="0.48406009"
     inkscape:cx="44.415974"
     inkscape:cy="449.32438"
     inkscape:window-width="1512"
     inkscape:window-height="945"
     inkscape:window-x="0"
     inkscape:window-y="37"
     inkscape:window-maximized="0"
     inkscape:current-layer="layer2" />
  <g
     inkscape:groupmode="layer"
     id="layer1"
     inkscape:label="colorado"
     transform="translate(383.64096,446.90987)">
    <g
       id="g619"
       transform="translate(42.199882,-48.108058)">
      <path
         d="m 383.03725,191.19819 a 400,400 0 1 1 0,-300 l -370.81,150 z"
         fill="#bf0a30"
         id="path239" />
      <circle
         cx="12.22725"
         cy="41.198189"
         r="200"
         fill="#ffd700"
         id="circle241" />
    </g>
  </g>
  <g
     inkscape:groupmode="layer"
     id="layer2"
     inkscape:label="arrl"
     transform="translate(383.64096,446.90987)">
    <g
       id="g615"
       transform="translate(45.483205,-45.194806)">
      <path
         d="m 188.07279,67.608665 c 5.8623,-15.994765 5.8623,-41.764118 0,-56.870301 L 22.941584,-388.24234 c -5.874622,-15.99478 -16.7846428,-15.99478 -23.48615981,0 L -165.67581,10.738364 c -6.71384,15.106183 -6.71384,40.875536 0,56.870301 L -0.54457581,464.81223 c 6.71386101,15.99476 17.61153781,15.99476 23.47381581,0 L 188.06045,67.608665 Z"
         fill="#ffcc00"
         fill-rule="evenodd"
         stroke="#000000"
         stroke-width="2.44508"
         stroke-linejoin="round"
         id="path58" />
      <path
         d="M 2.3557112,327.96805 H 33.370265 v 14.21757 H -10.232772 V 264.87756 H 2.3433672 v 63.09049 z M 26.175081,235.55381 c 8.824285,0 8.824285,8.88597 0,8.88597 H 3.7873382 c -8.836613,0 -8.836613,-8.88597 0,-8.88597 H 26.162753 Z m 9.552443,-15.99478 c 8.836613,0 8.824268,8.88599 0,8.88599 H -5.0986348 c -8.8366302,0 -8.8366302,-8.88599 0,-8.88599 z m 7.923342,-15.10617 c 8.836613,0 8.836613,8.88597 0,8.88597 h -56.746892 c -8.836612,0 -8.836612,-8.88597 0,-8.88597 z m 7.873966,-15.99478 c 8.836612,0 8.836612,8.88599 0,8.88599 h -73.506847 c -8.836611,0 -8.836611,-8.88599 0,-8.88599 z M 88.142487,-5.3921696 h 32.705373 c 16.74761,0 20.11688,17.7719796 20.11688,25.7816976 0,9.774588 -4.19616,17.771979 -10.07078,21.326375 5.03538,2.665797 7.54074,5.331594 7.54074,22.214957 0,7.849294 0.61709,13.328985 2.46834,19.549161 h -13.2426 c -0.83923,-4.442978 -1.78954,-8.885973 -1.78954,-16.883364 0,-12.440385 -0.83922,-16.883363 -10.89766,-16.883363 H 101.55786 V 83.480021 H 88.13016 V -5.3798254 Z M 116.6517,33.718512 c 7.5284,0 10.88534,-2.665797 10.88534,-11.551786 0,-5.331577 -1.66614,-12.4403687 -9.21922,-12.4403687 H 101.55786 V 33.706168 h 15.0815 z M -119.53038,-5.3798254 h 32.705364 c 16.75995,0 20.11687,17.7719794 20.11687,25.7693534 0,9.774588 -4.19616,17.771979 -10.07078,21.326375 5.0354,2.665797 7.5531,5.331594 7.5531,22.214957 0,7.849294 0.60473,13.328985 2.45598,19.549161 h -13.23025 c -0.83922,-4.442978 -1.78954,-8.885973 -1.78954,-16.883364 0,-12.440385 -0.83922,-16.883363 -10.89766,-16.883363 h -13.415384 v 33.766727 h -13.41536 V -5.3798254 Z m 28.509204,39.0983374 c 7.52841,0 10.89767,-2.665797 10.89767,-11.551786 0,-5.331577 -1.67846,-12.4403687 -9.23156,-12.4403687 H -106.10268 V 33.706168 h 15.093844 z M 15.771088,-117.52835 41.737899,-171.42432 H 15.771088 Z m -46.552704,299.76624 c -8.45402,0 -8.46635,-8.88599 0,-8.88599 H 9.4027982 v -44.08436 a 104.99038,104.99038 0 0 1 -14.18055,-3.11009 l -4.159146,-1.36992 -3.9863422,-1.5674 -3.764197,-1.76485 -3.517381,-1.94999 -3.258184,-2.15978 -2.98668,-2.36959 -2.653453,-2.59175 -2.295551,-2.81389 -1.88827,-3.06073 -1.40695,-3.29522 -0.8886,-3.505035 -0.29619,-3.72718 0.53068,-4.70216 1.51802,-4.39364 2.33257,-3.936978 2.986679,-3.468003 2.591749,-2.258522 -2.715157,-2.505355 -2.937321,-3.591412 -2.30788,-4.03572 -1.481,-4.442995 -0.51834,-4.800893 0.49366,-5.060088 1.45632,-4.640452 2.25852,-4.171472 2.937304,-3.665477 1.764854,-1.629101 -1.740166,-1.604413 -2.937322,-3.653116 -2.28319,-4.146801 -1.45632,-4.628107 -0.49366,-5.0354 0.50599,-4.911974 1.44399,-4.566404 2.27085,-4.1221117 2.91263,-3.690149 2.665797,-2.50535599 -2.530028,-2.29555401 -2.962009,-3.5790674 -2.30788,-4.0480639 -1.481,-4.492355 -0.51834,-4.813254 0.2715,-3.258185 0.76519,-3.097761 1.23417,-2.961991 1.65377,-2.789205 2.02404,-2.628782 2.357255,-2.443634 2.690469,-2.270866 2.986679,-2.110425 3.258202,-1.937639 3.517363,-1.777198 3.788886,-1.604412 4.0110312,-1.406956 c 4.677485,-1.357578 9.367314,-2.579404 14.192895,-3.221169 V -98.003869 L -33.780616,-180.32265 h 89.66205 l -40.110346,83.269084 v 53.932998 l -8.3923218,1.0984 -4.208505,0.752846 -3.99868701,0.937959 -3.76421399,1.0984 -3.529707,1.23417 -3.2581852,1.382267 -2.986679,1.505676 -2.690486,1.592068 -2.369586,1.690805 -2.061064,1.727838 -1.727821,1.777198 -1.382267,1.801887 -1.049041,1.777198 -0.740502,1.764854 -0.431963,1.752509 -0.135668,1.70315 0.320882,3.036039 0.913288,2.75219 1.481004,2.61642 2.061047,2.4683395 2.604093,2.3819301 1.036696,0.7281578 c 3.221169,-1.9623107 6.713844,-3.3816104 10.2065362,-4.8255814 l 4.66514,-1.604413 4.689829,-1.345234 4.628107,-1.086073 4.4923548,-0.826895 4.307242,-0.580043 4.023376,-0.357916 3.714837,-0.123442 7.108792,0.308538 6.664484,0.863911 6.096767,1.345234 5.405642,1.727838 4.652813,2.085736 3.825902,2.468323 3.023712,3.1718093 1.51802,4.50469901 -1.65379,4.19616099 -3.085399,2.838582 -3.776559,2.184473 -4.591091,1.8635907 -5.36861,1.579724 -6.047407,1.23417 -6.639813,0.814551 -7.071759,0.283849 -3.628444,-0.09882 -3.973999,-0.320882 -4.257882,-0.543028 -4.4676658,-0.777518 -4.61578,-0.987336 -4.689829,-1.258841 -4.665141,-1.5180367 A 77.283387,77.283387 0 0 1 -18.439862,5.0364113 l -1.147777,0.851566 -2.591749,2.455996 -2.048703,2.5917487 -1.493348,2.715156 -0.913288,2.875599 -0.320882,3.09776 0.320882,3.221169 0.925632,2.924976 1.481004,2.690468 2.024015,2.530044 2.567077,2.344915 2.406619,-1.357579 4.418306,-2.036376 4.5787482,-1.727838 4.66514,-1.419283 4.689812,-1.172465 4.61578,-0.913271 4.4923548,-0.691142 4.282554,-0.468979 7.688852,-0.370243 7.071759,0.296194 6.664484,0.814551 6.072096,1.271185 5.405642,1.666134 4.652796,1.999344 3.85059,2.418962 3.036057,3.122433 1.505675,4.455339 -1.51802,4.159128 -2.91263,2.949647 -3.702493,2.344914 -4.541732,1.99936 -5.380954,1.666117 -6.146144,1.23417 -6.824925,0.691125 -10.860645,-0.07403 -3.998704,-0.283867 -4.270209,-0.493651 -4.4923548,-0.691142 -4.628108,-0.937959 -4.677485,-1.18481 -4.677484,-1.431627 -4.5787482,-1.727821 -4.43065,-2.036376 -2.468323,-1.406956 -2.554733,2.369603 -2.036359,2.542372 -1.481004,2.715174 -0.913288,2.937302 -0.320882,3.245858 0.320882,2.912631 0.900944,2.715157 1.505692,2.628781 2.073392,2.530027 2.628764,2.418963 1.456316,1.061384 c 4.66514,-2.579404 9.7745712,-4.270209 14.8469872,-5.874621 l 4.66514,-1.23417 4.603436,-0.974992 4.4429948,-0.765174 4.22085,-0.5307 3.912294,-0.308539 3.554396,-0.123442 7.034743,0.246834 6.615124,0.703469 6.022719,1.086056 5.356282,1.382267 4.603419,1.690805 3.825919,2.024032 3.14712,2.739846 1.70315,4.196161 -1.505693,4.541731 -2.961991,3.208825 -3.825901,2.554718 -4.640469,2.19681 -5.430314,1.8389 -6.109128,1.43163 -6.689173,0.93798 -7.133463,0.33322 -3.653133,-0.12344 -3.973998,-0.37024 -4.257882,-0.61709 -4.4800108,-0.86391 -4.603436,-1.11075 -4.689829,-1.36992 c -5.060071,-1.76486 -10.1324702,-3.628443 -14.7482502,-6.368289 l -1.357579,0.913288 -2.616437,2.295531 -2.073392,2.39428 -1.481004,2.49301 -0.888599,2.59175 -0.320882,2.86327 0.172785,2.13509 0.530701,2.110435 0.876255,2.06106 1.234153,2.01169 1.604429,1.97466 1.974655,1.9006 2.307882,1.85125 2.653452,1.74018 2.962008,1.65377 3.2334972,1.5057 3.492691,1.36992 3.714838,1.23415 3.912294,1.07373 4.072752,0.90094 4.2208328,0.74051 8.28124,1.0984 v 51.88427 H 58.65838 c 8.83663,0 8.83663,8.88599 0,8.88599 z M 6.8850982,-118.07138 -19.489004,-171.42432 H 6.8850982 Z m -16.16755,117.71461031 4.220833,1.66611699 4.19616099,1.357578 4.27020901,1.135433 4.220849,0.913288 4.0850798,0.703469 7.404986,0.777534 3.085416,0.08643 6.405306,-0.246817 5.923999,-0.740502 5.331594,-1.073728 4.566403,-1.357579 3.628444,-1.46866 2.591749,-1.55505199 -0.394931,-0.431947 -2.381947,-1.53036401 -3.579068,-1.604412 -4.541732,-1.4563158 -5.319249,-1.1724657 -5.911655,-0.7651735 -6.380617,-0.2715224 -3.134793,0.098822 -3.579068,0.3208824 -3.875278,0.5183565 -4.0974238,0.7528293 -4.196161,0.9873359 -4.257865,1.2094813 c -2.789222,0.962648 -5.640132,1.888279 -8.293585,3.14712101 z M -10.54131,38.679847 c 5.6771652,2.616437 11.7862762,4.072752 17.9200762,5.294578 l 4.1097688,0.641765 7.51605,0.703469 9.972062,0.04941 5.961015,-0.592388 5.269873,-1.061385 4.442994,-1.382267 3.480348,-1.530363 2.591748,-1.75251 -0.431963,-0.444308 -2.369586,-1.480987 -3.579085,-1.555052 -4.554059,-1.394612 -5.306922,-1.110744 -5.923982,-0.740502 -6.41765,-0.246834 -6.837286,0.320883 -3.89995,0.431963 -4.1221128,0.629421 c -6.072095,1.209481 -12.181207,2.628781 -17.8213392,5.208185 z m 1.9006232,38.789799 3.690149,1.51802 4.19616099,1.481004 4.25786501,1.23417 4.196161,1.012007 4.0727348,0.789862 3.825919,0.555373 3.505019,0.320882 3.036056,0.111047 6.355946,-0.308538 5.886966,-0.826895 5.306905,-1.234169 4.517043,-1.542709 3.579068,-1.690805 2.406619,-1.604412 0.431963,-0.46898 -2.443651,-1.308218 -3.628445,-1.320546 -4.603419,-1.197137 -5.38097,-0.974992 -5.973359,-0.617093 -6.442339,-0.23449 -3.036039,0.08643 -7.318593,0.777534 -4.0727528,0.691125 -4.220832,0.900943 -4.25786501,1.110745 -4.22084899,1.345234 -3.665461,1.382267 z m 4.097424,-283.734426 H -17.95864 L 3.8367152,-288.89209 H 18.930536 l 21.795355,82.63965 H 27.310514 L 23.114353,-223.1358 H 0.50446419 l -5.02305499,16.88336 z m 8.379978,-31.10095 H 19.757431 l -8.379978,-32.8658 -7.5407378,32.87814 z M 11.562583,-361.58439 167.14137,14.29276 c 5.86227,13.328985 5.86227,35.543942 0,49.761526 L 11.574927,438.15426 -143.84342,64.054286 c -5.86229,-14.217584 -5.86229,-36.432541 0,-49.761526 L 11.574927,-361.58439 Z"
         fill-rule="evenodd"
         id="path60"
         style="stroke-width:12.3416" />
    </g>
  </g>
</svg>
